# xmcd
#
# Track frame offsets:
#	150
#	12957
#	26785
#	39930
#	63250
#	76550
#	90332
#	108057
#	119740
#	151802
#	168875
#	179727
#	193850
#	208102
#	221777
#	236460
#
# Disc length: 3533
#
# Revision: 1
# Processed by: cddbd v1.5.1PL0 Copyright (c) Steve Scherf et al.
# Submitted via: CDex 1.51
# Normalized: r0:DSETVAR1
#
DISCID=cb0dcb10
DTITLE=Various Artist - HMV Greatest Jazz Collection CD2
DYEAR=2001
DGENRE=Jazz
TTITLE0=sidney bechet - muskrat ramble
TTITLE1=benny goodman - king porter stomp
TTITLE2=glen miller - little brown jug
TTITLE3=duke ellington - black and tan fantasy
TTITLE4=fats waller - it's a sin to tell a lie
TTITLE5=art tatum - how high the moon
TTITLE6=coleman hawkins - april in paris
TTITLE7=count basie - wonderful thing
TTITLE8=red norvo sextet - the night is blue
TTITLE9=louis armstrong and duke ellington - cotton tail
TTITLE10=bud powell trio - salt peanuts
TTITLE11=charlie parker - crazeology
TTITLE12=chet baker - i can't get started
TTITLE13=miles davis - boplicity
TTITLE14=stan getz - moonlight in vermont
TTITLE15=horace silver quartet - enchantment
EXTD=YEAR: 2001
EXTT0=
EXTT1=
EXTT2=
EXTT3=
EXTT4=
EXTT5=
EXTT6=
EXTT7=
EXTT8=
EXTT9=
EXTT10=
EXTT11=
EXTT12=
EXTT13=
EXTT14=
EXTT15=
PLAYORDER=
